<?xml version="1.0" standalone="no"?>
<!DOCTYPE svg PUBLIC "-//W3C//DTD SVG 20010904//EN"
 "http://www.w3.org/TR/2001/REC-SVG-20010904/DTD/svg10.dtd">
<svg version="1.0" xmlns="http://www.w3.org/2000/svg"
 width="612.000000pt" height="612.000000pt" viewBox="0 0 612.000000 612.000000"
 preserveAspectRatio="xMidYMid meet">
<metadata>
Created by potrace 1.14, written by Peter Selinger 2001-2017
</metadata>
<g transform="translate(0.000000,612.000000) scale(0.100000,-0.100000)"
fill="#000000" stroke="none">
<path d="M3275 4612 c-62 -4 -229 -41 -312 -68 -164 -53 -345 -167 -492 -307
-230 -220 -348 -529 -292 -767 62 -260 276 -514 487 -575 94 -27 236 -43 364
-40 193 4 350 38 544 117 196 80 327 185 431 343 60 90 77 105 122 105 45 0
129 47 171 96 55 62 76 135 69 238 -14 202 -133 433 -306 599 -181 172 -378
254 -627 259 -65 2 -137 2 -159 0z m223 -177 c39 -10 72 -21 72 -26 0 -4 -17
-2 -37 4 -21 6 -94 11 -163 11 -290 -2 -540 -107 -719 -301 -111 -119 -183
-266 -197 -400 -3 -32 -8 -67 -9 -78 -2 -11 -4 -23 -4 -27 -1 -5 -5 -8 -10 -8
-23 0 6 221 40 301 93 222 292 396 560 490 61 22 135 43 163 47 81 13 225 6
304 -13z"/>
<path d="M4589 3015 c-50 -27 -55 -79 -11 -118 23 -21 107 -26 140 -8 55 29
69 82 31 117 -26 23 -122 29 -160 9z"/>
<path d="M1476 2985 c-155 -39 -239 -163 -188 -276 30 -67 83 -105 222 -159
128 -50 180 -99 180 -173 0 -92 -83 -142 -194 -117 -50 11 -120 75 -160 146
-24 43 -51 52 -49 17 0 -13 1 -54 2 -91 l1 -69 58 -13 c31 -8 59 -14 62 -15 3
-1 32 -5 65 -10 132 -19 236 2 325 66 71 51 98 146 65 225 -13 32 -45 74 -45
59 0 -4 -7 0 -15 7 -29 27 -44 38 -50 38 -3 0 -28 11 -57 25 -28 14 -57 25
-64 25 -6 0 -17 7 -24 15 -7 8 -15 13 -19 11 -4 -3 -28 11 -55 30 -95 70 -101
176 -10 219 42 20 100 15 169 -15 46 -20 120 -88 130 -120 3 -10 13 -21 21
-24 13 -5 14 8 12 87 l-3 92 -60 12 c-102 21 -253 24 -319 8z"/>
<path d="M4750 2822 c-8 -3 -18 -10 -22 -15 -9 -15 -33 -20 -113 -23 -38 -2
-71 -3 -72 -4 -1 0 9 -24 23 -52 14 -29 28 -60 32 -68 8 -16 7 -74 -4 -250 -6
-96 -11 -121 -31 -152 -12 -21 -23 -39 -23 -40 0 -2 15 -2 32 -1 18 1 84 2
147 2 l114 1 -19 21 c-21 23 -23 55 -24 385 0 207 0 209 -40 196z"/>
<path d="M3629 2780 c-30 -22 -62 -29 -142 -31 -52 -1 -56 -3 -44 -18 27 -30
30 -65 29 -270 -2 -204 -6 -231 -38 -231 -8 0 -14 -4 -14 -9 0 -6 10 -8 23 -5
12 2 78 4 146 4 123 0 123 0 100 19 -24 19 -24 21 -24 217 l0 197 30 18 c31
18 101 25 121 11 28 -18 33 -54 31 -234 -1 -121 1 -184 8 -181 6 3 -3 -6 -20
-20 -16 -14 -28 -27 -25 -29 3 -1 68 -1 145 3 77 3 135 6 129 7 -29 5 -39 67
-38 242 l0 175 34 23 c42 28 99 29 128 2 24 -22 23 -14 25 -268 1 -110 -1
-125 -21 -151 l-22 -30 83 -3 c71 -3 233 6 200 10 -29 4 -37 48 -38 217 -1 99
-6 187 -13 212 -24 82 -102 131 -188 117 -42 -7 -125 -42 -136 -58 -5 -7 -8
-7 -8 -1 0 6 -11 -3 -25 -20 -24 -29 -25 -29 -37 -10 -21 37 -69 75 -106 84
-66 18 -157 -10 -222 -67 l-35 -31 -5 64 -5 64 -26 -19z"/>
<path d="M2891 2779 c-78 -31 -169 -150 -232 -302 l-37 -90 -22 49 c-12 27
-23 54 -24 59 -2 12 -53 148 -71 190 -7 17 -17 44 -22 60 -9 27 -14 30 -56 33
l-46 3 -12 -43 c-25 -93 -101 -314 -115 -338 -8 -14 -13 -17 -10 -8 3 9 -8 54
-25 100 -35 100 -69 221 -69 248 0 10 8 24 18 29 12 8 -24 11 -130 10 l-147
-1 19 -26 c21 -30 45 -90 115 -287 26 -71 55 -155 67 -187 l20 -56 50 -4 c68
-4 83 4 101 54 24 68 101 228 110 228 4 0 15 -17 23 -37 9 -21 29 -67 46 -103
16 -36 37 -82 45 -102 13 -32 20 -38 47 -39 17 0 46 -2 63 -3 41 -4 47 4 67
84 9 36 21 74 26 85 53 118 77 160 112 194 45 45 95 60 134 42 28 -12 83 -14
100 -3 31 21 39 97 12 129 -32 38 -104 53 -157 32z"/>
<path d="M3107 2766 c39 -33 58 -83 58 -161 l0 -60 -89 -18 c-182 -37 -256
-88 -256 -177 0 -41 25 -77 71 -101 67 -34 144 -22 228 36 l51 35 0 -57 c1
-128 45 -254 118 -335 147 -163 444 -113 477 79 9 59 -1 98 -37 133 -60 61
-174 24 -184 -58 -3 -30 1 -36 40 -60 63 -38 75 -64 51 -108 -25 -47 -47 -57
-110 -52 -64 5 -97 29 -128 93 -36 73 -47 175 -47 449 0 231 -1 244 -22 286
-31 61 -79 86 -165 89 -37 1 -72 5 -77 8 -6 3 3 -7 21 -21z m62 -337 c-2 -79
-2 -81 -33 -100 -35 -22 -103 -20 -117 3 -17 26 -21 79 -9 107 14 35 78 70
128 71 l33 0 -2 -81z"/>
</g>
</svg>
